<?xml version="1.0" encoding="UTF-8" standalone="no"?>
<svg width="202px" height="38px" viewBox="0 0 202 38" version="1.1" xmlns="http://www.w3.org/2000/svg" xmlns:xlink="http://www.w3.org/1999/xlink">
    <!-- Generator: Sketch 40.1 (33804) - http://www.bohemiancoding.com/sketch -->
    <title>logo-text-white</title>
    <desc>Created with Sketch.</desc>
    <defs>
        <path d="M0,37.2482819 L0,5.5973258 C0.00575567885,5.18127023 0.341629208,4.84563758 0.748601487,4.84563758 L2.5030228,4.84563758 L2.5030228,34.9383221 C2.5030228,35.3604027 2.83993978,35.704698 3.25520372,35.704698 L28.5352409,35.704698 L29.7867898,35.704698 L32.5401975,35.704698 L33.7917465,35.704698 L197.089848,35.704698 L201.498805,35.704698 L201.857248,35.704698 C201.935595,35.704698 201.999174,35.7694765 201.999174,35.849302 L201.999174,37.855396 C201.999174,37.9352215 201.935595,38 201.857248,38 L201.498805,38 L197.089848,38 L33.7917465,38 L31.7917713,38 L29.7867898,38 L28.5352409,38 L0.748601487,38 C0.338667201,38 0.00573010999,37.6613856 -2.57694528e-15,37.2482819 Z" id="path-1"></path>
    </defs>
    <g id="Styleguide" stroke="none" stroke-width="1" fill="none" fill-rule="evenodd">
        <g id="Styling" transform="translate(-1274.000000, -1684.000000)">
            <g id="Logo" transform="translate(853.000000, 1588.000000)">
                <g id="logo-white" transform="translate(337.000000, 84.000000)">
                    <g id="logo-text-white" transform="translate(72.000000, 0.000000)">
                        <g id="logo/white/text" transform="translate(12.000000, 12.000000)">
                            <g>
                                <path d="M8.97473234,16.180196 L9.0222912,16.2528805 L9.10389219,16.2806792 C9.25808302,16.3329611 9.42779306,16.3605047 9.59474969,16.3605047 C9.99799876,16.3605047 10.3481822,16.203149 10.555689,15.9287329 L10.5974907,15.8736456 L10.6060012,15.8045315 C10.6678278,15.3010953 10.6200186,14.8494309 10.573461,14.4125584 C10.5186431,13.8948403 10.4665787,13.4056859 10.6004944,12.8619544 L10.6142615,12.8053369 L10.6024969,12.7479544 C10.523399,12.3613235 10.5737113,11.924196 10.6225217,11.5008403 C10.718891,10.6640752 10.8387893,9.62251812 9.57122057,9.36467919 L9.49087113,9.34835705 L9.41652912,9.38380671 C8.97848699,9.59140403 8.71240768,9.8997396 8.55396159,10.3832832 L8.53794176,10.4314846 L8.54169641,10.4822362 C8.58349814,11.081055 8.52567658,11.7303705 8.46935688,12.3582631 C8.35146097,13.6780617 8.22930979,15.0432564 8.97473234,16.180196" id="Fill-4" fill="#FFFFFF"></path>
                                <path d="M13.7742473,31.1654067 L13.9151717,31.2008564 C13.9564729,31.2110577 14.0611024,31.3049101 14.1236798,31.3607624 C14.2896352,31.509702 14.4776178,31.6782792 14.7231717,31.6782792 C14.791256,31.6782792 14.858339,31.6645074 14.922168,31.6374738 L15.0082746,31.601004 L15.049826,31.5163329 C15.0838682,31.4469638 15.1336798,31.3788698 15.1862449,31.3072054 C15.2868694,31.1694872 15.4072684,31.0047356 15.4215361,30.7961181 C15.6075162,30.6252456 15.7882399,30.4258094 15.970966,30.1896483 C16.0931172,30.0320376 16.2145175,29.8598899 16.3424258,29.6637691 C16.5156401,29.3982792 16.6740862,29.1289638 16.8062498,28.8999436 L16.9867232,28.5852322 C17.2840912,28.0647087 17.5686934,27.5668832 17.8828322,27.1580644 L17.9371494,27.2924671 L24.1295633,31.8476215 L24.1881358,31.8909772 L25.1343068,31.9509101 L25.171603,31.9414738 C25.295256,31.9101047 25.4149041,31.8652188 25.5272932,31.8080913 C25.6149016,31.7634604 25.6972535,31.7114336 25.7723465,31.6530309 C26.0296649,31.4533396 26.1933675,31.1891248 26.245432,30.8886953 L26.2491866,30.4288698 L26.1202771,30.3559302 C23.778629,29.0333262 21.8877888,27.603098 19.661033,25.8716752 C19.380686,25.604145 19.2307504,25.5355409 19.0983366,25.474843 C19.0400144,25.4480644 18.9889512,25.4248564 18.9246216,25.3812456 C19.2572833,24.7046416 19.7085918,24.069353 20.1461333,23.453447 C20.7573898,22.5929638 21.3896724,21.7028966 21.7205819,20.6781718 L21.7899177,20.4636886 L21.5894196,20.3675409 C21.3318508,20.2443597 20.9601408,20.1709101 20.5951891,20.1709101 C20.1744183,20.1709101 19.8079648,20.2675678 19.5636625,20.4430309 L19.5078434,20.4978631 C17.9566736,22.5911785 16.7411693,24.7064268 15.7562002,26.4993128 L15.7381779,26.5406282 C15.5567033,27.0754336 15.1772337,27.535004 14.7754865,28.021098 C14.0803762,28.8621987 13.3617368,29.7318631 13.7239351,31.0210577 L13.7742473,31.1654067 Z" id="Fill-6" fill="#FFFFFF"></path>
                                <path d="M13.4684439,18.3950349 C13.5232617,19.2932631 13.0334055,19.9377329 12.517517,20.6161221 C12.4173931,20.7477195 12.3177698,20.8788067 12.222652,21.0111691 C12.021403,21.0392228 11.8514426,20.7806188 11.6752245,20.5296658 C11.5756012,20.3878671 11.4734748,20.242498 11.3555789,20.1262027 C11.5981291,19.1519745 12.5460523,18.730404 13.4684439,18.3950349 L13.4684439,18.3950349 Z M10.735061,23.0501624 C11.1680969,23.2990752 11.6612072,23.4360282 12.12403,23.4360282 L12.1242803,23.4360282 C12.4173931,23.4360282 12.6849742,23.381196 12.9195145,23.2728067 L12.9588131,23.2544443 L12.9901019,23.2238403 C14.8977128,21.3437329 15.7570263,19.4480685 15.6836855,17.271102 C17.3915492,16.3499208 19.3852667,15.2433302 21.3501985,13.972243 C21.6240374,13.7952497 21.8968751,13.615451 22.1647066,13.4348872 L22.5699581,13.1737329 L22.6160151,16.6697329 C22.6160151,16.9280819 22.5474302,17.1673034 22.4743398,17.4205517 C22.4192716,17.6123369 22.362201,17.810498 22.3391725,18.0147799 C22.3309123,18.0889946 22.3269073,18.1632094 22.3289098,18.2381893 C22.3311626,18.3297463 22.3421762,18.4195181 22.3614501,18.5052094 L22.3912369,18.639102 L22.5176434,18.6873034 C22.6037499,18.7199477 22.6858515,18.7413705 22.7672022,18.7617732 C22.8830957,18.791357 22.9749594,18.8145651 23.0733311,18.8770483 L23.1789618,18.9438671 L23.2951056,18.8987262 C24.8450238,18.2945517 24.7989668,16.2634644 24.7686793,14.9189275 C24.7646743,14.755451 24.7614203,14.603196 24.76117,14.4542564 C24.7291304,13.782243 24.8022208,13.1010483 24.8728082,12.4425517 C24.9726818,11.5106591 25.07631,10.5471423 24.8870758,9.58541074 L24.8720572,9.50941074 L24.8182406,9.45483356 C24.6597945,9.29365235 24.474315,9.21204161 24.2673088,9.21204161 C23.9346471,9.21204161 23.6297698,9.42448456 23.3609371,9.61218926 L23.2497995,9.68869933 L23.20174,9.7310349 C21.6235368,11.5318268 19.520434,12.6669812 17.4864166,13.7651557 C16.8123323,14.1288336 16.1154699,14.5050081 15.4471428,14.9003101 L15.408595,14.9158671 C15.3933261,13.6779342 15.4589073,12.5193168 15.5279928,11.2989812 C15.5630362,10.6787396 15.5993311,10.0375852 15.6246124,9.37016242 C15.6246124,8.91059195 15.7322456,8.4800953 15.8461366,8.02435034 C15.9052097,7.78818926 15.9662853,7.54386711 16.0120919,7.29316913 L16.0208528,7.24471275 L16.011341,7.19651141 C15.9114674,6.68899463 15.5337499,6.33449799 15.0932047,6.33449799 C14.83088,6.33449799 14.5843249,6.45895436 14.3990957,6.68516913 L14.3833261,6.70633691 C13.1297747,8.60837718 13.2093732,10.9286725 13.2862183,13.1722027 C13.3170064,14.0740013 13.3487958,15.0066591 13.296481,15.9265651 L13.296481,15.9380416 C11.4537004,16.4310215 9.83269418,17.9859611 9.31280074,19.7831826 L9.30253804,19.855357 C9.30253804,21.0759477 9.76836456,22.1386725 10.6872518,23.0142027 L10.735061,23.0501624 Z" id="Fill-8" fill="#FFFFFF"></path>
                                <path d="M179.893814,26.3551168 C179.921849,27.2701772 179.953889,28.3071436 181.195926,28.7292242 L181.23998,28.7399356 C181.269517,28.7440161 181.299054,28.7460564 181.32859,28.7460564 C181.545358,28.7460564 181.757621,28.636902 181.977894,28.4124725 L182.042474,28.3469289 L182.050233,28.2543517 C182.308553,25.239855 183.513795,22.4607544 185.267715,20.8259893 C185.375098,20.7318819 185.450191,20.679345 185.499252,20.6497611 C185.507262,20.7372376 185.506511,20.861949 185.50601,20.9471302 L185.50551,21.0402174 C185.50551,21.644647 185.430417,22.3477745 185.358077,23.0274389 C185.291995,23.6443651 185.229918,24.2271168 185.229918,24.6871973 C185.229918,26.5749557 186.246677,27.7476 187.883453,27.7476 C188.098719,27.7476 188.314987,27.7213315 188.563544,27.6652242 L188.748523,27.6231436 L188.759036,27.4303383 C188.803341,26.6198416 188.29321,26.4693718 187.988332,26.3796 C187.863678,26.3428752 187.746032,26.3081906 187.691966,26.2485128 L187.65517,26.2151034 C187.196602,25.8753987 187.13027,25.4915732 187.082461,24.9623785 C187.069946,24.3740161 187.151046,23.7657611 187.229643,23.1773987 C187.304736,22.6135195 187.382833,22.0305128 187.382833,21.4482711 C187.382833,20.6382846 187.237403,19.9989154 186.924766,19.4355463 L186.883966,19.3807141 C186.531279,19.0213718 186.068456,18.8300966 185.469215,18.7964322 L185.416399,18.7936268 L185.366337,18.8127544 C183.608912,19.4926738 182.270256,21.5056537 181.444484,23.5354658 C181.476023,22.8104054 181.527837,21.964204 181.576397,21.1743651 C181.640476,20.1302577 181.700801,19.144043 181.700801,18.642902 L181.689036,18.5064591 L181.588662,18.429949 C181.253747,18.1736403 181.032223,18.004553 180.659762,18.004553 C180.491804,18.004553 180.297063,18.0379624 180.009207,18.1160027 L179.826731,18.1654792 L179.823477,18.3577745 C179.813215,18.9247141 179.763653,19.562298 179.711589,20.2371168 C179.636246,21.2093047 179.558399,22.214902 179.573168,23.233506 C179.573168,23.9269423 179.632241,24.5533047 179.759398,25.1702309 C179.868533,25.5339087 179.881549,25.9513987 179.893814,26.3551168" id="Fill-10" fill="#FFFFFF"></path>
                                <path d="M172.604077,18.816094 C173.05914,18.9290738 173.409073,19.2560268 173.409073,19.5758389 C173.409073,20.0267383 173.037363,20.8548322 170.632637,21.4949664 C170.956037,20.4256107 171.670672,19.0221611 172.604077,18.816094 M170.016124,26.3168859 C170.814612,26.8590872 171.608094,27.1008591 172.59031,27.1008591 L172.59056,27.1008591 C172.639871,27.1008591 172.688932,27.100349 172.73599,27.0993289 C174.659371,27.0761208 176.828055,26.287047 178.685854,24.9348591 L178.814513,24.8415168 L178.786729,24.6831409 C178.691611,24.1330336 178.351941,23.7504832 177.899881,23.6844295 L177.807767,23.6709128 L177.72942,23.7221745 C176.448335,24.5594497 174.485155,25.3151141 173.527219,25.3395973 C173.45463,25.3418926 173.381039,25.3431678 173.306697,25.3431678 C172.271415,25.3431678 171.539009,25.1044564 171.007851,24.5982148 C170.824875,24.4112752 170.579321,23.809396 170.533014,23.4788725 C172.181804,22.8848993 173.717455,22.2730738 174.591787,21.4090201 C175.081143,20.8841611 175.332704,20.2037315 175.36149,19.3208054 C175.36149,18.1693289 173.788543,17 172.658144,17 C170.710483,17 169.254682,19.1346309 168.685727,21.1858658 C168.36483,21.2287114 168.028915,21.453906 168.002882,21.9802953 C167.978602,22.3243356 168.107262,22.6984698 168.406131,23.1534497 C168.454942,24.045557 168.912008,25.5670872 170.016124,26.3168859" id="Fill-12" fill="#FFFFFF"></path>
                                <path d="M113.378595,15.4840819 L113.449433,15.6427128 L113.620394,15.6330215 C114.386593,15.5899208 114.859678,15.2247128 115.025383,14.5475987 L115.043155,14.4751691 L114.419133,12.5935315 L114.409871,12.5695584 C114.318008,12.3637463 114.338533,12.1612497 114.480959,11.8710215 L114.551797,11.7271826 L114.454677,11.6001758 C114.251926,11.3349409 114.13378,11.2469544 113.831656,11.2469544 C113.393363,11.2469544 113.036922,11.3818671 112.800129,11.6374107 C112.561584,11.8955047 112.454201,12.2581624 112.479983,12.7067664 C112.50176,13.6205517 112.842932,14.3425517 113.173091,15.0410886 C113.242677,15.188243 113.312013,15.3353973 113.378595,15.4840819" id="Fill-14" fill="#FFFFFF"></path>
                                <path d="M114.807864,23.8645611 L114.80461,23.8301315 C114.7155,23.271098 114.747539,22.6126013 114.778327,21.9757826 C114.797601,21.5771651 114.817376,21.1652859 114.807614,20.7758497 C114.782833,20.0987356 114.754798,19.3315946 113.981842,19.3315946 L113.929527,19.3372054 C113.537792,19.4226416 113.142303,19.5669906 112.985358,20.3030174 C112.829666,21.1211651 112.755073,22.2287758 112.780104,23.3402121 C112.806887,24.768145 112.857951,26.356494 113.03492,27.3105745 L113.041177,27.337353 C113.0592,27.3970309 113.075971,27.4559436 113.092241,27.5140913 C113.235918,28.0195678 113.39837,28.5926282 114.098736,28.5926282 C114.131527,28.5926282 114.165819,28.591098 114.201363,28.5882926 L114.273202,28.5826819 L114.331024,28.5390711 C115.06293,27.9866685 115.086208,27.7665745 115.060176,27.0111651 L115.058174,26.949702 C115.045658,26.5266013 114.994094,26.0331114 114.939277,25.5108027 C114.880954,24.9525342 114.82063,24.3748832 114.807864,23.8645611" id="Fill-16" fill="#FFFFFF"></path>
                                <path d="M191.869988,23.2660738 C192.231936,22.8822483 192.732055,22.682557 193.352572,22.6726107 C193.589115,22.6726107 193.994367,22.6889329 194.312511,22.7320336 C194.206629,24.2012819 194.161073,25.5029732 194.17459,26.695255 C191.590392,26.611349 191.182637,26.056906 191.174877,25.7268926 C191.148845,24.6264228 191.389393,23.7753758 191.869988,23.2660738 M189.305063,26.8916309 L189.314825,26.9314161 L189.336352,26.9663557 C190.161623,28.291 192.418917,28.481 194.32828,28.4871208 C194.534786,28.6781409 194.719765,28.7676577 194.904493,28.7676577 C195.262186,28.7676577 195.825633,28.2915101 195.985831,28.1489463 L199.113202,26.9852282 C199.441108,26.8334832 199.481908,26.4386913 199.514949,26.1214295 C199.525713,26.0176309 199.535975,25.919698 199.553747,25.8411477 L199.61257,25.5820336 L199.356002,25.5333221 C199.171274,25.4978725 198.981789,25.4800201 198.792305,25.4800201 C198.10996,25.4800201 197.482934,25.7100604 196.876684,25.9324497 C196.666924,26.0094698 196.452409,26.0880201 196.234139,26.1581544 C196.273688,22.9001007 196.613358,19.2102752 196.942265,15.6380201 C197.053653,14.4268658 197.163038,13.2414698 197.256404,12.1101409 L197.256905,12.0660201 L197.251898,12.034906 C197.157281,11.4434832 196.775809,11.3190268 196.472434,11.3190268 C196.436389,11.3190268 196.398592,11.3208121 196.353537,11.3251477 C195.80686,11.3868658 195.484962,11.6056846 195.278206,12.057349 L195.256679,12.133094 C194.890726,15.0736309 194.731529,17.2888523 194.54655,19.8542349 L194.474962,20.8419799 C194.119271,20.7914832 193.646686,20.7659799 193.315276,20.7853624 C189.634971,20.9697517 189.18116,23.5983826 189.222461,26.1408121 C189.222461,26.4162483 189.250245,26.6687315 189.305063,26.8916309" id="Fill-18" fill="#FFFFFF"></path>
                                <path d="M102.142038,23.8645611 L102.138784,23.8301315 C102.049924,23.2716081 102.081714,22.6136215 102.112502,21.9773128 C102.131776,21.5781852 102.1518,21.165796 102.141788,20.7758497 C102.117258,20.0987356 102.089473,19.3315946 101.316016,19.3315946 L101.263451,19.3372054 C100.871967,19.4226416 100.476477,19.5672456 100.319533,20.3032725 C100.16409,21.1216752 100.089498,22.2292859 100.114529,23.3402121 C100.141062,24.7673799 100.191875,26.3552188 100.369344,27.3105745 L100.375602,27.337353 C100.393625,27.3970309 100.410395,27.4559436 100.426665,27.5140913 C100.570343,28.0195678 100.732794,28.5926282 101.432911,28.5926282 C101.465701,28.5926282 101.499994,28.591098 101.535538,28.5882926 L101.607377,28.5826819 L101.665198,28.5390711 C102.397605,27.9864134 102.420633,27.7660644 102.394351,27.010145 L102.392348,26.949702 C102.380083,26.5260913 102.328269,26.0313262 102.273451,25.5079973 C102.215129,24.950494 102.154804,24.3741181 102.142038,23.8645611" id="Fill-20" fill="#FFFFFF"></path>
                                <path d="M104.400934,24.608749 L104.580156,24.585796 L104.615199,24.4054872 C104.633472,24.3134201 104.648741,24.251957 104.678778,24.1881987 C105.269008,23.8724671 105.678515,23.7260779 106.129323,23.6187087 C106.258984,24.7663597 106.434701,25.9645074 106.656225,27.2014201 C106.676751,27.2799705 106.686513,27.3914201 106.697026,27.5097557 C106.731068,27.892306 106.782131,28.4704671 107.347581,28.6538362 L107.380121,28.6619973 C107.506778,28.6846953 107.642446,28.7056081 107.77511,28.7056081 L107.77536,28.7056081 C108.104518,28.7056081 108.355328,28.576051 108.614148,28.271796 L108.675224,28.1998765 L108.675224,28.104749 C108.675224,27.2554872 108.545814,26.4495812 108.420409,25.6701987 C108.296255,24.8971919 108.167846,24.099702 108.17135,23.270843 C108.836924,23.0721718 109.578592,22.9209369 110.297982,22.7745477 C110.840654,22.6638631 111.353038,22.5592993 111.83964,22.435353 L112.007348,22.3927624 L112.027623,22.2178094 C112.090951,21.6692322 111.845648,21.2262389 111.371311,21.0329235 L111.320999,21.0125208 L111.267432,21.0150711 C110.155056,21.0650577 109.069212,21.188749 108.126044,21.3111651 C108.143566,19.6126416 108.309521,16.7011785 108.643935,15.1791383 L108.65595,15.1245611 L108.644436,15.0702389 C108.452949,14.1579839 107.924044,14.022051 107.626176,14.022051 C107.356091,14.022051 107.049212,14.1312054 106.714297,14.3467087 L106.618178,14.4086819 L106.600657,14.5231919 C106.284515,16.5935544 106.136082,19.5065477 106.100287,21.621796 C104.921578,21.8775946 104.221712,22.2193396 103.085306,22.7742926 L102.982178,22.8242792 L102.952141,22.936494 C102.803457,23.4876215 102.842005,23.9191383 103.067033,24.2200779 C103.318845,24.5562121 103.770153,24.6895946 104.400934,24.608749" id="Fill-22" fill="#FFFFFF"></path>
                                <path d="M100.71277,15.4840819 L100.783607,15.6427128 L100.954569,15.6330215 C101.720767,15.5899208 102.193853,15.2247128 102.359808,14.5475987 L102.37758,14.4751691 L101.753307,12.5935315 L101.744046,12.5695584 C101.652432,12.3637463 101.672958,12.1615047 101.815384,11.8710215 L101.886222,11.7271826 L101.789102,11.6001758 C101.586351,11.3349409 101.468204,11.2469544 101.166081,11.2469544 C100.727788,11.2469544 100.371097,11.3818671 100.134304,11.6374107 C99.8957584,11.8955047 99.7883755,12.2581624 99.8141574,12.7067664 C99.8361846,13.6208067 100.177357,14.3428067 100.507515,15.0415987 C100.576851,15.188498 100.646437,15.3353973 100.71277,15.4840819" id="Fill-24" fill="#FFFFFF"></path>
                                <path d="M143.792461,16.1759624 C143.873561,16.2188081 143.958416,16.263694 144.057289,16.3205664 C144.254533,16.4210497 144.421239,16.4881235 144.593202,16.4881235 C144.76967,16.4881235 144.903836,16.4197745 145.073546,16.3330631 C145.136875,16.3009289 145.209715,16.263694 145.298074,16.2233987 L145.355395,16.1968752 L145.393693,16.1461235 C145.837242,15.5585262 145.398699,15.2050497 145.187938,15.0354523 C145.11685,14.9783248 145.059029,14.9298685 145.017477,14.8852376 C146.907566,14.1402846 149.418424,13.4940295 151.270967,13.0173718 L151.626156,12.9255597 C151.922773,12.8663919 152.229903,12.8322174 152.554805,12.7957477 C153.329514,12.7087812 154.130506,12.6192644 154.794577,12.1744859 L154.84489,12.1408215 L154.874426,12.0877745 C155.277926,11.3678148 154.868919,10.867949 154.649147,10.5993987 L154.577809,10.5119221 L153.129266,10.4550497 L153.094724,10.4642309 C152.370828,10.6483651 151.624654,10.8217879 150.903011,10.989345 C148.409425,11.5690362 145.831234,12.1681101 143.481576,13.3652376 L143.433016,13.3897208 L143.399224,13.4323114 C143.100354,13.8074658 142.691348,14.3208483 142.845038,15.0066336 C142.946164,15.7286336 143.376446,15.9561235 143.792461,16.1759624 Z M150.557183,20.5042899 C149.99749,20.6596054 149.421778,20.8197664 148.832048,20.9620752 C149.091119,19.3084376 149.252318,17.6382228 149.324407,15.869055 C149.356948,15.6918067 149.307136,15.5071624 149.182231,15.3459812 C148.981483,15.0871221 148.612526,14.9129342 148.264345,14.9129342 C147.880871,14.9129342 147.58901,15.1263973 147.48388,15.4836993 L147.47587,15.519404 C147.180003,17.5387597 146.873875,19.6251893 146.551225,21.4642362 L145.757994,21.7641557 L145.719446,21.8036859 C145.613064,21.9120752 145.461376,21.9559409 145.300427,22.0026121 C145.093171,22.062545 144.85838,22.1306389 144.734727,22.3616993 C144.641111,22.5371624 144.638108,22.7590416 144.724965,23.0592161 C144.779783,23.4302899 144.988291,23.8615517 145.662375,23.8615517 C145.879394,23.8615517 146.106425,23.8202362 146.326197,23.780451 C146.379763,23.7705047 146.432328,23.7610685 146.483141,23.7521423 L146.672375,28.5993101 L147.0158,29.6051624 L147.252844,29.4600483 C147.273369,29.457243 147.318425,29.4544376 147.414293,29.4544376 L147.68588,29.4564779 C147.951208,29.4564779 148.351704,29.4564779 148.397761,29.1297799 C148.523917,28.0693503 148.806016,25.3955785 148.727669,23.2765047 L148.767718,23.2114711 C149.661825,22.8648805 150.525644,22.6317799 151.361929,22.4063302 C152.68006,22.0505584 153.925101,21.7149342 155.182157,20.9809477 L155.283783,20.9217799 L155.304058,20.8042094 C155.389163,20.3127597 155.332844,19.9026658 155.149867,19.6784913 L155.065513,19.5752027 L154.9341,19.5874443 C153.299327,19.7422497 151.905352,20.1296456 150.557183,20.5042899 Z" id="Combined-Shape" fill="#FFFFFF"></path>
                                <path d="M81.4144855,21.3020349 C81.8995859,23.3476591 82.3581534,25.2808134 83.42197,27.0752295 C83.5986887,27.474357 83.9371076,27.7123034 84.3303442,27.7123034 C84.5964235,27.7123034 84.8647556,27.6023839 85.0862798,27.4034577 L85.1390952,27.3557664 L85.1598709,27.2874174 C85.612431,25.7931758 85.9125524,23.8197262 86.1773802,22.0786121 C86.2329489,21.7121289 86.2870159,21.3566121 86.3410828,21.014357 C86.3943988,21.1594711 86.4479651,21.3073906 86.5025326,21.4565852 C87.2669787,23.5539812 88.1335512,25.930894 89.3823467,27.5003705 L89.4379155,27.5702497 L89.5242724,27.5888671 C89.609628,27.6077396 89.6967358,27.6171758 89.783343,27.6171758 C90.0884706,27.6171758 90.3913455,27.5019007 90.6589266,27.283847 L90.7360221,27.2208537 L90.9302625,25.8719812 C91.2912092,23.3769879 91.6639204,20.7970685 91.8784359,18.308196 L91.8856949,18.2227597 L91.8406392,18.1500752 C91.5978387,17.7578336 91.2989688,17.5828805 90.8711893,17.5828805 C90.7174991,17.5828805 90.5422823,17.6045584 90.3034867,17.6532698 L90.1355289,17.6874443 L90.1059923,17.8593369 C89.9105004,18.9965315 89.815633,20.5555517 89.7237693,22.0635651 C89.669452,22.9579678 89.6171373,23.8164107 89.5465499,24.5659544 C89.2038758,23.7998336 88.8491869,22.7901557 88.5032587,21.8049611 C88.0532017,20.5236725 87.5881261,19.1992832 87.1413232,18.3903168 L87.1155413,18.3520617 C86.8827532,18.0671893 86.5520939,17.9289611 86.105291,17.9289611 C85.8707507,17.9289611 85.6419675,17.966196 85.4399675,17.9990953 L85.2299576,18.0330148 L85.1828994,18.1827195 C84.8554942,19.2260617 84.6807779,20.6761826 84.5120691,22.078357 C84.4021831,22.9913772 84.2892934,23.9281154 84.1353529,24.730451 C83.7426169,23.5611221 83.2645252,21.3663034 82.9616503,19.9756054 C82.8808002,19.6052966 82.812716,19.2918604 82.7611522,19.0679409 C82.5836825,18.3150819 81.9268696,18.3150819 81.7111026,18.3150819 C81.4758114,18.3150819 81.2077296,18.3515517 80.9534149,18.3908268 L80.6680617,18.4346926 L80.7511646,18.7162497 C81.0054793,19.577243 81.2134867,20.4543034 81.4144855,21.3020349" id="Fill-28" fill="#FFFFFF"></path>
                                <path d="M166.871061,23.8645611 L166.867807,23.8301315 C166.778697,23.271098 166.810736,22.6126013 166.841524,21.9757826 C166.860798,21.5771651 166.880573,21.1652859 166.870811,20.7758497 C166.84603,20.0987356 166.817995,19.3315946 166.045039,19.3315946 L165.992724,19.3372054 C165.600989,19.4226416 165.2055,19.5669906 165.048555,20.3030174 C164.892863,21.1211651 164.81827,22.2287758 164.843301,23.3402121 C164.870085,24.768145 164.921148,26.356494 165.098117,27.3105745 L165.104374,27.337353 C165.122397,27.3970309 165.139168,27.4559436 165.155438,27.5140913 C165.299115,28.0195678 165.461567,28.5926282 166.161933,28.5926282 C166.194724,28.5926282 166.229016,28.591098 166.26456,28.5882926 L166.336399,28.5826819 L166.394221,28.5390711 C167.126127,27.9866685 167.149405,27.7665745 167.123373,27.0111651 L167.121371,26.949702 C167.108855,26.5266013 167.057291,26.0331114 167.002474,25.5108027 C166.944151,24.9525342 166.883827,24.3748832 166.871061,23.8645611" id="Fill-30" fill="#FFFFFF"></path>
                                <path d="M130.502338,15.6845638 C130.733874,15.6845638 130.821733,15.7610738 130.863034,15.8567114 C130.434754,16.9416242 128.520135,19.1349128 127.965949,19.1532752 L127.93441,19.1540403 C127.844799,19.1540403 127.773961,19.1540403 127.773961,18.642953 C127.773961,17.426443 129.380449,15.6845638 130.502338,15.6845638 M131.303079,26.1154362 C131.303079,27.8262013 129.627004,29.9919463 128.599733,29.9919463 C127.925148,29.9919463 127.673587,29.5068725 127.673587,29.2013423 C127.673587,27.2748188 129.632261,24.5681477 130.897327,23.4498255 C130.943884,23.7242416 130.99695,23.9981477 131.048764,24.2659329 C131.179426,24.943047 131.303079,25.5824161 131.303079,26.1154362 M127.49862,21.0147651 C128.602486,21.0147651 129.997213,20.1127114 130.9161,18.8979866 C130.848767,19.6620671 130.7952,20.5587651 130.821232,21.3075436 C128.081342,23.0134631 125.595765,26.8654899 125.571235,29.4818792 C125.571235,30.6346309 126.826789,31.8539463 128.014008,31.8542013 L128.053807,31.8536913 C130.832747,31.8011544 133.305557,28.4586846 133.305557,25.855302 C133.292291,25.209557 133.177649,24.593906 133.066261,23.9986577 C132.96889,23.4778792 132.868767,22.9402685 132.835976,22.3799597 C133.32433,21.9770067 133.850231,21.6278658 134.405168,21.2593423 C135.496018,20.535047 136.623914,19.7857584 137.464204,18.5871007 L137.596368,18.3991409 L137.425406,18.2468859 C137.157825,18.0081745 136.747066,17.9214631 136.288249,18.0097047 L136.240439,18.0186309 L136.199389,18.0456644 C135.653964,18.4022013 135.111793,18.7360403 134.587394,19.0584027 C133.97013,19.4386577 133.3804,19.8018255 132.802434,20.1889664 C132.810695,20.0152886 132.818955,19.8400805 132.827465,19.6635973 C132.869267,18.7936779 132.91232,17.8944295 132.930092,16.9597315 C132.930092,15.6284564 132.665014,14.0804027 130.591448,13.9253423 C128.286596,13.7914497 125.771483,16.3509664 125.771483,18.7704698 C125.771483,19.638094 126.240313,21.0147651 127.49862,21.0147651" id="Fill-32" fill="#FFFFFF"></path>
                                <path d="M116.830617,26.3551168 C116.858652,27.2701772 116.890692,28.3071436 118.132729,28.7292242 L118.176783,28.7399356 C118.20632,28.7440161 118.235857,28.7460564 118.265393,28.7460564 C118.482161,28.7460564 118.694424,28.636902 118.914697,28.4124725 L118.979277,28.3469289 L118.987036,28.2543517 C119.245356,25.239855 120.450598,22.4607544 122.204518,20.8259893 C122.311901,20.7318819 122.386994,20.679345 122.436055,20.6497611 C122.444065,20.7372376 122.443314,20.861949 122.442813,20.9471302 L122.442313,21.0402174 C122.442313,21.644647 122.36722,22.3477745 122.29488,23.0274389 C122.228798,23.6443651 122.166721,24.2271168 122.166721,24.6871973 C122.166721,26.5749557 123.18348,27.7476 124.820256,27.7476 C125.035522,27.7476 125.25179,27.7213315 125.500347,27.6652242 L125.685326,27.6231436 L125.695839,27.4303383 C125.740144,26.6198416 125.230013,26.4693718 124.925135,26.3796 C124.800481,26.3428752 124.682835,26.3081906 124.628769,26.2485128 L124.591973,26.2151034 C124.133405,25.8753987 124.067073,25.4915732 124.019264,24.9623785 C124.006749,24.3740161 124.087849,23.7657611 124.166446,23.1773987 C124.241539,22.6135195 124.319636,22.0305128 124.319636,21.4482711 C124.319636,20.6382846 124.174206,19.9989154 123.861569,19.4355463 L123.820769,19.3807141 C123.468082,19.0213718 123.005259,18.8300966 122.406018,18.7964322 L122.353202,18.7936268 L122.30314,18.8127544 C120.545715,19.4926738 119.207058,21.5056537 118.381286,23.5354658 C118.412826,22.8104054 118.46464,21.964204 118.5132,21.1743651 C118.577279,20.1302577 118.637604,19.144043 118.637604,18.642902 L118.625839,18.5064591 L118.525465,18.429949 C118.19055,18.1736403 117.969026,18.004553 117.596565,18.004553 C117.428607,18.004553 117.233866,18.0379624 116.94601,18.1160027 L116.763534,18.1654792 L116.76028,18.3577745 C116.750018,18.9247141 116.700456,19.562298 116.648392,20.2371168 C116.573049,21.2093047 116.495202,22.214902 116.509971,23.233506 C116.509971,23.9269423 116.569044,24.5533047 116.696201,25.1702309 C116.805336,25.5339087 116.818352,25.9513987 116.830617,26.3551168" id="Fill-36" fill="#FFFFFF"></path>
                                <path d="M165.441792,15.4840819 L165.51263,15.6427128 L165.683591,15.6330215 C166.44979,15.5899208 166.922875,15.2247128 167.08858,14.5475987 L167.106352,14.4751691 L166.48233,12.5935315 L166.473068,12.5695584 C166.381205,12.3637463 166.40173,12.1612497 166.544156,11.8710215 L166.614994,11.7271826 L166.517874,11.6001758 C166.315123,11.3349409 166.196977,11.2469544 165.894853,11.2469544 C165.45656,11.2469544 165.100119,11.3818671 164.863326,11.6374107 C164.624781,11.8955047 164.517398,12.2581624 164.54318,12.7067664 C164.564957,13.6205517 164.906129,14.3425517 165.236288,15.0410886 C165.305874,15.188243 165.37521,15.3353973 165.441792,15.4840819" id="Fill-38" fill="#FFFFFF"></path>
                                <path d="M156.370778,20.4335691 C157.101182,21.6500792 157.085663,23.3465624 157.072146,24.8436094 C157.062134,25.9456094 157.053373,26.8976497 157.331467,27.5439047 L157.364258,27.6201597 L157.434595,27.6617302 C157.564506,27.7390054 157.722451,27.7798107 157.891911,27.7798107 C158.210805,27.7798107 158.544969,27.6410725 158.76399,27.4179181 L158.825316,27.3554349 L158.835579,27.2677034 C158.948719,26.2975557 158.989519,25.2159584 158.963237,23.8670859 C159.533943,22.4534349 161.14719,21.2259584 162.983462,20.8071933 C163.147165,20.7793946 163.311118,20.6939584 163.455797,20.6182134 L163.699599,20.493247 L163.664055,20.303502 C163.509363,19.4835691 162.697608,19.4835691 162.431029,19.4835691 L162.288102,19.4845893 C160.728922,19.5072872 159.404283,20.2787638 158.660112,21.1071128 C158.439338,20.2328577 158.061371,19.1362134 157.222082,18.7207638 C157.066639,18.6417034 156.877906,18.5960523 156.704942,18.5960523 C156.352506,18.5960523 156.070156,18.7799315 155.930233,19.1002537 L155.88768,19.1981866 L156.351755,20.394294 L156.370778,20.4335691 Z" id="Fill-40" fill="#FFFFFF"></path>
                                <path d="M92.6422563,20.4335691 C93.3724099,21.6500792 93.3568907,23.3465624 93.343374,24.8436094 C93.3333616,25.9456094 93.3246007,26.8976497 93.6026949,27.5439047 L93.6354855,27.6199047 L93.7058226,27.6617302 C93.8357333,27.7390054 93.9936788,27.7798107 94.1628882,27.7798107 L94.1631385,27.7798107 C94.4820332,27.7798107 94.8161968,27.6410725 95.0352178,27.4179181 L95.0965437,27.3554349 L95.1068064,27.2677034 C95.2199465,26.299596 95.2604967,25.2179987 95.2344644,23.8670859 C95.8051708,22.4531799 97.418167,21.2259584 99.25469,20.8071933 C99.4186429,20.7793946 99.5828461,20.6937034 99.7277755,20.6179584 L99.970576,20.493247 L99.935032,20.303502 C99.7803405,19.4835691 98.9685859,19.4835691 98.7020059,19.4835691 L98.5590791,19.4845893 C97.0001497,19.5072872 95.67526,20.2787638 94.931089,21.1071128 C94.710566,20.2328577 94.3328486,19.1364685 93.4930592,18.7207638 C93.3376169,18.6417034 93.1488833,18.5960523 92.9759192,18.5960523 C92.623483,18.5960523 92.3411336,18.7799315 92.2012104,19.1002537 L92.1586577,19.1981866 L92.6229824,20.394549 L92.6422563,20.4335691 Z" id="Fill-42" fill="#FFFFFF"></path>
                                <path d="M56.2835328,21.9371195 C56.5506134,22.0827436 56.7891586,22.1753208 57.0049257,22.2163812 C57.1561128,22.6843678 57.2114312,23.438247 57.2114312,24.0243141 C57.2114312,24.9444752 57.0820211,27.0847168 55.8847893,27.0847168 C55.5398625,27.0847168 55.2590149,26.478247 55.2590149,25.7330389 C55.2590149,23.7812671 55.8104473,22.6435624 56.2835328,21.9371195 M55.2777881,21.021294 L55.229228,21.0327705 L55.1886778,21.0623544 C53.9769281,21.9442604 53.2818178,23.460945 53.2818178,25.2229718 C53.2818178,27.101549 54.1098426,28.9974685 55.9598823,28.9974685 C58.0694932,28.9974685 59.0136617,26.4226497 59.0136617,23.8710389 C59.0136617,23.0003544 58.8792454,22.1429315 58.6246803,21.3905826 L58.596145,21.3324349 C58.2184275,20.7547839 57.5143061,20.3962067 56.7588711,20.3962067 C56.5736419,20.3962067 56.3871611,20.4176295 56.2046853,20.4602201 L56.1638848,20.4734819 C55.9486183,20.5647839 55.8209603,20.7450926 55.7934263,20.9779383 C55.6402367,20.9618711 55.4677732,20.9766631 55.2777881,21.021294" id="Fill-44" fill="#FFFFFF"></path>
                                <path d="M61.8425378,26.9847436 C61.8720743,26.9847436 61.9016109,26.9837235 61.9331499,26.9819383 C63.2004684,26.9013477 64.3055861,26.0740188 64.9128377,24.8256295 C65.0419975,25.7205423 65.2807931,26.3471597 65.9456159,26.9842336 C66.1038116,27.1456698 66.3208302,27.2344215 66.5558711,27.2344215 L66.5561214,27.2344215 C66.8770186,27.2344215 67.191658,27.070945 67.3571128,26.8179517 L67.4522305,26.6723275 L67.3533581,26.5295087 C66.3631326,25.0985154 66.3188278,23.0653879 66.2760248,21.0988242 C66.2612565,20.4212 66.2472392,19.7808107 66.1969269,19.1577638 L66.1861636,19.1019114 C66.0021859,18.5084483 65.5323544,18.4321933 65.1436233,18.4321933 C65.0687807,18.4321933 64.9904337,18.4352537 64.9088327,18.4390792 L64.7829269,18.4457101 L64.7128401,18.5525691 C64.3869368,19.0506497 64.4344957,19.7022604 64.4850582,20.3923812 L64.4950706,20.5313745 C64.3641586,22.5961262 63.1676778,25.2482201 62.0675663,25.2482201 C61.7724511,25.2482201 61.4427931,24.4729181 61.4167608,22.7743946 C61.4167608,21.9626228 61.5434176,21.1457503 61.6773333,20.2816966 C61.7419133,19.8649718 61.808746,19.4344752 61.865316,18.9810255 L61.8733259,18.9177772 L61.8510483,18.8580993 C61.7256431,18.5229852 61.4305279,18.1236027 60.7361685,18.1236027 C60.5702131,18.1236027 60.3909913,18.1452805 60.1879901,18.1896564 L59.9995068,18.2307168 L59.9902454,18.4265826 C59.9559529,19.1483275 59.8731004,19.8371732 59.7927509,20.5033208 C59.6951301,21.3117772 59.6032664,22.0753477 59.5894994,22.9019114 C59.5894994,23.2645691 59.6147807,23.6341128 59.6665948,24.0291597 C59.7642156,24.8513879 60.3454349,26.9847436 61.8425378,26.9847436 Z M44.4943923,14.2544886 C45.4440677,15.5676564 47.3324047,17.9246765 49.5151061,19.2819651 L49.4622907,19.8881799 C49.2607913,22.4869718 49.0322585,25.4326094 49.5065955,27.8735356 L49.5253688,27.9319383 C49.7258669,28.3695758 50.0239859,28.4613879 50.2387517,28.4613879 C50.579173,28.4613879 50.9220974,28.2374685 51.2535076,28.020945 C51.3228434,27.9760591 51.3916786,27.9309181 51.4592622,27.8890926 L51.6086971,27.7965154 L51.574655,27.6215624 C51.2059487,25.7241128 51.3220924,23.658596 51.4344815,21.6609181 C51.4690243,21.0460322 51.5045683,20.4115087 51.5248434,19.7956027 C51.8094456,19.6372268 52.1916686,19.3523544 52.0587542,18.7991866 L55.9350515,13.9129987 L55.9350515,13.3644215 L55.866717,13.2907168 C55.4614654,12.8533342 55.0709822,12.5189852 54.4001519,12.6822067 L54.3152969,12.7026094 L54.2617306,12.7719785 C53.4084245,13.8732134 52.2682634,15.2809987 51.2625187,16.5232671 C50.9974406,16.8504752 50.742375,17.1654416 50.5045807,17.4600054 C49.1071011,16.4722604 47.0660751,14.455455 46.085111,12.8467034 L46.0623328,12.8094685 L46.0287913,12.7821799 C45.4816141,12.3363812 44.9992672,12.311643 44.6440776,12.6735356 C44.5019016,12.8183946 44.0686154,13.3577906 44.4701123,14.2134282 L44.4943923,14.2544886 Z M67.5862213,20.4335691 C68.316375,21.6500792 68.3008558,23.3465624 68.2870887,24.8433544 C68.2770763,25.9456094 68.2683155,26.8976497 68.54666,27.5439047 L68.5792002,27.6201597 L68.6497876,27.6617302 C68.7794481,27.7390054 68.9376439,27.7798107 69.1071036,27.7798107 C69.4259983,27.7798107 69.7601618,27.6410725 69.9791829,27.4179181 L70.0405088,27.3554349 L70.0507715,27.2677034 C70.1639115,26.299596 70.2044617,25.2179987 70.1786798,23.8670859 C70.7488855,22.4531799 72.3621321,21.2262134 74.1984047,20.8071933 C74.3623576,20.7793946 74.5260602,20.6939584 74.670489,20.6184685 L74.9147913,20.493247 L74.878997,20.303502 C74.7243056,19.4835691 73.9128012,19.4835691 73.645971,19.4835691 L73.5032944,19.4845893 C71.9441147,19.5072872 70.6194753,20.2787638 69.875054,21.1071128 C69.6542808,20.2328577 69.2765633,19.1362134 68.4372746,18.7207638 C68.2815819,18.6417034 68.0930986,18.5960523 67.9198843,18.5960523 C67.5674481,18.5960523 67.2850986,18.7799315 67.1454258,19.1002537 L67.1026228,19.1981866 L67.5669475,20.394549 L67.5862213,20.4335691 Z" id="Combined-Shape" fill="#FFFFFF"></path>
                                <path d="M35.0433705,3.06165235 L35.0433705,33.1543369 L36.7977918,33.1543369 C37.2082999,33.1543369 37.5464684,32.812847 37.5464684,32.3917866 L37.5464684,0.762524832 C37.5464684,0.344524832 37.2113036,-2.55033553e-05 36.7977918,-2.55033553e-05 L5.75487237,-2.55033553e-05 C5.34436431,-2.55033553e-05 5.00619579,0.34146443 5.00619579,0.762524832 L5.00619579,2.29527651 L34.2911896,2.29527651 C34.7067038,2.29527651 35.0433705,2.63957181 35.0433705,3.06165235" id="Combined-Shape" fill="#FFFFFF"></path>
                                <mask id="mask-2" fill="white">
                                    <use xlink:href="#path-1"></use>
                                </mask>
                                <use id="Combined-Shape" fill="#FFFFFF" xlink:href="#path-1"></use>
                            </g>
                        </g>
                    </g>
                </g>
            </g>
        </g>
    </g>
</svg>