<?xml version="1.0" encoding="utf-8"?>
<!-- Generator: Adobe Illustrator 16.0.0, SVG Export Plug-In . SVG Version: 6.00 Build 0)  -->
<!DOCTYPE svg PUBLIC "-//W3C//DTD SVG 1.1//EN" "http://www.w3.org/Graphics/SVG/1.1/DTD/svg11.dtd">
<svg version="1.1" id="Layer_1" xmlns="http://www.w3.org/2000/svg" xmlns:xlink="http://www.w3.org/1999/xlink" x="0px" y="0px"
	 width="16px" height="16px" viewBox="0 0 16 16" enable-background="new 0 0 16 16" xml:space="preserve">
<path fill="#FFFFFF" d="M14.5,0h-13C0.675,0,0,0.675,0,1.5v13C0,15.325,0.675,16,1.5,16H8V9H6V7h2V6c0-1.653,1.348-3,3-3h2v2h-2
	c-0.55,0-1,0.45-1,1v1h3l-0.5,2H10v7h4.5c0.825,0,1.5-0.675,1.5-1.5v-13C16,0.675,15.325,0,14.5,0z"/>
</svg>
