<?xml version="1.0" encoding="utf-8"?>
<!-- Generator: Adobe Illustrator 16.0.0, SVG Export Plug-In . SVG Version: 6.00 Build 0)  -->
<!DOCTYPE svg PUBLIC "-//W3C//DTD SVG 1.1//EN" "http://www.w3.org/Graphics/SVG/1.1/DTD/svg11.dtd">
<svg version="1.1" id="Layer_1" xmlns="http://www.w3.org/2000/svg" xmlns:xlink="http://www.w3.org/1999/xlink" x="0px" y="0px"
	 width="16px" height="16px" viewBox="0 0 16 16" enable-background="new 0 0 16 16" xml:space="preserve">
<path fill="#FFFFFF" d="M16,3.538c-0.598,0.267-1.233,0.44-1.884,0.516c0.685-0.41,1.198-1.056,1.444-1.815
	c-0.645,0.382-1.35,0.651-2.084,0.797c-0.622-0.662-1.49-1.036-2.397-1.034C9.268,1.999,7.797,3.466,7.795,5.277
	c0,0.253,0.029,0.505,0.086,0.752c-2.64-0.133-5.099-1.38-6.766-3.431C0.245,4.097,0.689,6.016,2.131,6.979
	C1.61,6.962,1.1,6.822,0.643,6.57v0.041c0,1.563,1.102,2.911,2.634,3.219C2.793,9.962,2.285,9.981,1.792,9.887
	c0.431,1.336,1.662,2.252,3.066,2.281c-1.375,1.081-3.125,1.57-4.862,1.359c1.501,0.965,3.249,1.477,5.034,1.475
	c6.036,0,9.341-5.003,9.341-9.341c0-0.144-0.003-0.284-0.009-0.425C15.006,4.773,15.56,4.198,16,3.538L16,3.538z"/>
</svg>
