<svg width="50" height="50" viewBox="0 0 50 50" xmlns="http://www.w3.org/2000/svg" xmlns:xlink="http://www.w3.org/1999/xlink"><title>button/write-icon/hover</title><defs><rect id="a" width="50" height="50" rx="2"/><mask id="b" x="0" y="0" width="50" height="50" fill="#fff"><use xlink:href="#a"/></mask></defs><g fill="none" fill-rule="evenodd"><use stroke="#9E9E9E" mask="url(#b)" stroke-width="2" fill="#F5F5F5" xlink:href="#a"/><path d="M28.643 33.118v5.701h-7.311v-5.7a.564.564 0 0 0-.028-.178l-4.119-12.624 7.244-9.141v8.715a2.465 2.465 0 0 0-1.873 2.4c0 1.36 1.091 2.467 2.431 2.467 1.342 0 2.432-1.106 2.432-2.466 0-1.164-.8-2.143-1.873-2.4v-8.715l7.245 9.14-4.12 12.624a.598.598 0 0 0-.028.177zm5.305-12.737a.577.577 0 0 0-.095-.534L25.424 9.213a.554.554 0 0 0-.049-.055v-.003h-.003l-.001-.002h-.001l-.002-.001V9.15h-.002a.283.283 0 0 0-.033-.03c-.001-.002-.001-.002-.003-.002v-.002h-.002v-.001l-.002-.002h-.002l-.001-.002a.589.589 0 0 0-.103-.061h-.001c0-.002-.003-.001-.003-.001v-.001h-.002a1.346 1.346 0 0 0-.046-.02h-.005a.552.552 0 0 0-.361.003c-.001 0-.004.003-.006.002s0 .001 0 .001h-.003l-.001.001h-.002l-.003.001v.002h-.005a.537.537 0 0 0-.155.095c-.002 0-.002.002-.003.002l-.001.001-.001.001-.001.001-.001.002h-.001c-.002 0-.002.002-.002.002h-.002v.002c0 .001-.002-.001-.002.002l-.001.001h-.001a.493.493 0 0 0-.06.065l-8.428 10.634a.574.574 0 0 0-.095.534l4.186 12.83v5.618h-.658v2.267h10.863v-2.267h-.658V33.21l4.187-12.83z" fill="#616161"/></g></svg>