<?xml version="1.0" encoding="UTF-8" standalone="no"?>
<svg width="50px" height="50px" viewBox="0 0 50 50" version="1.1" xmlns="http://www.w3.org/2000/svg" xmlns:xlink="http://www.w3.org/1999/xlink">
    <!-- Generator: Sketch 41 (35326) - http://www.bohemiancoding.com/sketch -->
    <title>button/write-icon/normal</title>
    <desc>Created with Sketch.</desc>
    <defs>
        <rect id="path-1" x="0" y="0" width="50" height="50" rx="2"></rect>
        <mask id="mask-2" maskContentUnits="userSpaceOnUse" maskUnits="objectBoundingBox" x="0" y="0" width="50" height="50" fill="white">
            <use xlink:href="#path-1"></use>
        </mask>
    </defs>
    <g id="Symbols" stroke="none" stroke-width="1" fill="none" fill-rule="evenodd">
        <g id="button/write-icon/normal">
            <g>
                <use id="Rectangle-6" stroke="#9E9E9E" mask="url(#mask-2)" stroke-width="2" fill="#FFFFFF" xlink:href="#path-1"></use>
                <path d="M28.6432006,33.1184667 L28.6432006,38.8191333 L21.3315535,38.8191333 L21.3315535,33.1184667 C21.3315535,33.0572667 21.3226124,32.9983333 21.3036124,32.9405333 L17.1850829,20.3174667 L24.4285535,11.176 L24.4285535,19.8913333 C23.35673,20.1486 22.5564947,21.1278 22.5564947,22.2917333 C22.5564947,23.6517333 23.6473182,24.7578667 24.9873771,24.7578667 C26.3285535,24.7578667 27.4193771,23.6517333 27.4193771,22.2917333 C27.4193771,21.1278 26.6191418,20.1486 25.5462006,19.8913333 L25.5462006,11.1771333 L32.7907888,20.3174667 L28.6711418,32.9405333 C28.6532594,32.9983333 28.6432006,33.0572667 28.6432006,33.1184667 L28.6432006,33.1184667 Z M33.9475535,20.3809333 C34.0067888,20.1984667 33.9710241,19.9978667 33.8525535,19.8471333 L25.4243771,9.21306667 C25.4098477,9.1938 25.3930829,9.17566667 25.3763182,9.15866667 C25.3785535,9.15866667 25.3763182,9.15753333 25.3752006,9.15753333 L25.3740829,9.15526667 L25.3729653,9.15526667 C25.3729653,9.15526667 25.3729653,9.15526667 25.3718477,9.15413333 L25.3718477,9.15413333 L25.37073,9.153 C25.37073,9.153 25.37073,9.153 25.3696124,9.153 L25.3684947,9.15186667 L25.3673771,9.15073333 L25.3662594,9.15073333 C25.3562006,9.1394 25.3439065,9.1292 25.33273,9.12013333 L25.33273,9.12013333 C25.3316124,9.119 25.3316124,9.119 25.3304947,9.119 L25.3304947,9.11786667 L25.3293771,9.11786667 C25.3293771,9.11786667 25.3293771,9.11786667 25.3293771,9.11673333 L25.3282594,9.11673333 L25.3271418,9.1156 L25.3271418,9.1156 L25.3260241,9.11446667 L25.3249065,9.11446667 C25.3249065,9.11333333 25.3249065,9.11333333 25.3237888,9.11333333 L25.3237888,9.11333333 L25.3226712,9.1122 C25.2902594,9.0884 25.25673,9.068 25.2198477,9.051 L25.21873,9.051 L25.21873,9.051 C25.21873,9.04873333 25.2164947,9.04986667 25.2164947,9.04986667 C25.2164947,9.04986667 25.2164947,9.04873333 25.2153771,9.04873333 L25.2153771,9.04873333 L25.2142594,9.04873333 C25.1986124,9.04193333 25.1829653,9.03513333 25.1684359,9.02946667 L25.1673182,9.02946667 C25.1662006,9.02946667 25.1662006,9.02833333 25.1650829,9.02833333 L25.1628477,9.02833333 L25.1628477,9.02833333 C25.10473,9.00906667 25.0466124,9 24.9873771,9 C24.9259065,9 24.8633182,9.0102 24.8018477,9.03173333 C24.80073,9.03286667 24.7984947,9.03513333 24.7962594,9.034 C24.7940241,9.03286667 24.7951418,9.03513333 24.7951418,9.03513333 L24.7929065,9.03513333 L24.7929065,9.03513333 L24.7917888,9.03626667 L24.7906712,9.03626667 L24.7895535,9.03626667 C24.7884359,9.0374 24.7884359,9.0374 24.7873182,9.0374 L24.7873182,9.0374 C24.7873182,9.0374 24.7862006,9.0374 24.7862006,9.03853333 L24.7839653,9.03853333 C24.7828477,9.03966667 24.7828477,9.03966667 24.78173,9.03966667 C24.7258477,9.0612 24.6755535,9.09293333 24.6308477,9.13033333 C24.62973,9.1326 24.6286124,9.13373333 24.6274947,9.13373333 C24.6263771,9.13373333 24.6263771,9.13486667 24.6263771,9.13486667 C24.6252594,9.13486667 24.6252594,9.136 24.6241418,9.136 C24.6241418,9.13713333 24.6230241,9.13713333 24.6230241,9.13713333 L24.6219065,9.13826667 C24.6207888,9.13826667 24.6207888,9.1394 24.6207888,9.1394 C24.6207888,9.1394 24.6207888,9.1394 24.6196712,9.14053333 C24.6196712,9.14053333 24.6185535,9.14053333 24.6185535,9.14166667 C24.6174359,9.14166667 24.6174359,9.1428 24.6174359,9.1428 L24.6163182,9.1428 C24.6163182,9.1428 24.6163182,9.14393333 24.6152006,9.14393333 L24.6152006,9.14393333 C24.6152006,9.14506667 24.6152006,9.14506667 24.6140829,9.14506667 C24.6140829,9.1462 24.6129653,9.14393333 24.6129653,9.14733333 C24.6118477,9.14733333 24.6118477,9.14733333 24.6118477,9.14846667 L24.61073,9.14846667 C24.61073,9.1496 24.6096124,9.15073333 24.6084947,9.15073333 C24.5872594,9.17 24.5682594,9.19153333 24.5514947,9.21306667 L16.1233182,19.8471333 C16.00373,19.9978667 15.9690829,20.1984667 16.0283182,20.3809333 L20.2139065,33.2102667 L20.2139065,38.8293333 L19.5556124,38.8293333 L19.5556124,41.096 L30.4191418,41.096 L30.4191418,38.8293333 L29.7608477,38.8293333 L29.7608477,33.2102667 L33.9475535,20.3809333 Z" id="Fill-3" fill="#616161"></path>
            </g>
        </g>
    </g>
</svg>